<svg width="512" height="512" xmlns="http://www.w3.org/2000/svg">

 <g>
  <title>background</title>
  <rect fill="none" id="canvas_background" height="602" width="802" y="-1" x="-1"/>
 </g>
 <g>
  <title>Layer 1</title>
  <path id="svg_1" fill="#2f90e0" d="m193.459,490c0,11.04599 -8.95399,20 -20,20l-66.889,0c-44.112,0 -80,-35.888 -80,-80l0,-352c0,-44.112 35.888,-80 80,-80l245.88902,0c44.112,0 80,35.888 80,80l0,123c0,11.04601 -8.95401,20 -20,20s-20,-8.95399 -20,-20l0,-123c0,-22.056 -17.944,-40 -40,-40l-245.88902,0c-22.056,0 -40,17.944 -40,40l0,352c0,22.056 17.944,40 40,40l66.889,0c11.04601,0 20,8.95401 20,20zm139.00002,-372l-206.00001,0c-11.04599,0 -20,8.95399 -20,20s8.95401,20 20,20l206.00001,0c11.04599,0 20,-8.95399 20,-20s-8.95401,-20 -20,-20zm20,100c0,-11.04601 -8.95401,-20 -20,-20l-206.00001,0c-11.04599,0 -20,8.95399 -20,20s8.95401,20 20,20l206.00001,0c11.04599,0 20,-8.95399 20,-20zm-226.00002,60c-11.046,0 -20,8.95401 -20,20s8.954,20 20,20l125.11101,0c11.04599,0 20,-8.95401 20,-20s-8.95401,-20 -20,-20l-125.11101,0zm341.42601,94.42599l-109.573,109.367c-2.44,2.436 -5.46799,4.19901 -8.79001,5.11899l-80.72501,22.36102c-1.763,0.48898 -3.55899,0.72699 -5.33798,0.72699c-5.31702,0 -10.50101,-2.12299 -14.317,-6.034c-5.09401,-5.22101 -6.94101,-12.80002 -4.821,-19.78l23.91299,-78.72501c0.95801,-3.15201 2.67801,-6.01801 5.01001,-8.345l109.80298,-109.56c23.379,-23.379 61.44302,-23.37799 84.83701,0.01599c23.39499,23.396 23.39499,61.46002 0.00101,84.854zm-60.457,3.828l-28.29001,-28.29001l-74.08899,73.92502l-11.88501,39.129l40.612,-11.25l73.65201,-73.51401zm32.173,-60.396c-7.798,-7.798 -20.48599,-7.798 -28.284,0l-3.862,3.854l28.285,28.285l3.875,-3.867c7.78397,-7.78601 7.78397,-20.474 -0.01401,-28.272z"/>
  <g id="svg_2"/>
  <g id="svg_3"/>
  <g id="svg_4"/>
  <g id="svg_5"/>
  <g id="svg_6"/>
  <g id="svg_7"/>
  <g id="svg_8"/>
  <g id="svg_9"/>
  <g id="svg_10"/>
  <g id="svg_11"/>
  <g id="svg_12"/>
  <g id="svg_13"/>
  <g id="svg_14"/>
  <g id="svg_15"/>
  <g id="svg_16"/>
 </g>
</svg>